<?xml version="1.0" encoding="utf-8"?>
<!-- Generator: Adobe Illustrator 21.0.0, SVG Export Plug-In . SVG Version: 6.00 Build 0)  -->
<svg version="1.1" id="图层_1" xmlns="http://www.w3.org/2000/svg" xmlns:xlink="http://www.w3.org/1999/xlink" x="0px" y="0px"
	 viewBox="0 0 85 64" style="enable-background:new 0 0 85 64;" xml:space="preserve">
<style type="text/css">
	.st0{fill:none;stroke:#909090;stroke-miterlimit:10;}
	.st1{fill:#BABABA;}
	.st2{fill:#888693;}
	.st3{fill:#FFE3FF;}
	.st4{font-family:'FZCHSJW--GB1-0';}
	.st5{font-size:9.3223px;}
	.st6{font-family:'InkFree';}
	.st7{font-size:5.1791px;}
</style>
<g>
	<polygon class="st0" points="42.5,17.1 26,27.4 59,27.4 	"/>
	<ellipse transform="matrix(0.6599 -0.7514 0.7514 0.6599 1.611 37.7459)" class="st1" cx="42.5" cy="17.1" rx="2" ry="2"/>
	<path class="st2" d="M17.3,47.7h50.4c1.7,0,3.1-1.4,3.1-3.1V30.2c0-1.7-1.4-3.1-3.1-3.1H17.3c-1.7,0-3.1,1.4-3.1,3.1v14.4
		C14.2,46.3,15.6,47.7,17.3,47.7z"/>
	<g>
		<g>
			<text transform="matrix(1 0 0 1 23.8555 38.6488)" class="st3 st4 st5">获取失败</text>
		</g>
		<g>
			<text transform="matrix(1 0 0 1 36.7227 44.4749)" class="st3 st6 st7">Sorry</text>
		</g>
	</g>
</g>
</svg>
